<?xml version="1.0" encoding="UTF-8"?> <svg xmlns="http://www.w3.org/2000/svg" width="40" height="40" viewBox="0 0 40 40" fill="none"><g clip-path="url(#clip0_265_52)"><path d="M5.83237 29.1665H4.16532V26.6671C29.9977 26.6671 36.6659 24.1676 36.6659 20C36.6659 15.8324 29.9988 13.3329 4.16532 13.3329V10.8335H5.83237C34.1653 10.8335 40 5.83353 40 0H18.3329C18.3329 10.0012 0 5.00116 0 12.0624C0 18.3353 14.1676 15.0012 14.1676 20C14.1676 24.9988 0 21.6671 0 27.9399C0 35.0012 18.3329 30.0012 18.3329 40H40C40 34.1676 34.1676 29.1676 5.83468 29.1676H5.83353L5.83237 29.1665Z" fill="white"></path></g><defs><clipPath id="clip0_265_52"><rect width="40" height="40" fill="white"></rect></clipPath></defs></svg> 